<?xml version="1.0" encoding="utf-8"?>
<!-- Generator: Adobe Illustrator 24.0.1, SVG Export Plug-In . SVG Version: 6.00 Build 0)  -->
<svg version="1.1" id="Слой_1" xmlns="http://www.w3.org/2000/svg" x="0px" y="0px"
     viewBox="0 0 139 21.9" style="enable-background:new 0 0 139 21.9;" xml:space="preserve">
<style type="text/css">
	.st0{fill:#F0D234;filter:url(#Adobe_OpacityMaskFilter);}
	.st1{fill:#F0D234;}
	.st2{mask:url(#mask0_1_);}
	.st3{fill:url(#SVGID_1_);}
</style>
    <defs>
	<filter id="Adobe_OpacityMaskFilter" filterUnits="userSpaceOnUse" x="0" y="0" width="139" height="21.9">
		<feColorMatrix type="matrix" values="1 0 0 0 0  0 1 0 0 0  0 0 1 0 0  0 0 0 1 0"/>
	</filter>
</defs>
    <mask maskUnits="userSpaceOnUse" x="0" y="0" width="139" height="21.9" id="mask0_1_">
	<path class="st0" d="M11.5,0l3.7,6.7l7.2,1.6L17.5,14l0.7,7.7l-6.8-3.1l-6.8,3.1L5.5,14L0.6,8.3l7.2-1.6L11.5,0z"/>
        <path class="st1"
              d="M40.5,0l3.7,6.7l7.2,1.6L46.5,14l0.7,7.7l-6.8-3.1l-6.8,3.1l0.7-7.7l-4.9-5.7l7.2-1.6L40.5,0z"/>
        <path class="st1"
              d="M69.5,0l3.7,6.7l7.2,1.6L75.5,14l0.7,7.7l-6.8-3.1l-6.8,3.1l0.7-7.7l-4.9-5.7l7.2-1.6L69.5,0z"/>
        <path class="st1"
              d="M98.5,0l3.7,6.7l7.2,1.6l-4.9,5.7l0.7,7.7l-6.8-3.1l-6.8,3.1l0.7-7.7l-4.9-5.7l7.2-1.6L98.5,0z"/>
        <path class="st1"
              d="M127.5,0l3.7,6.7l7.2,1.6l-4.9,5.7l0.7,7.7l-6.8-3.1l-6.8,3.1l0.7-7.7l-4.9-5.7l7.2-1.6L127.5,0z"/>
</mask>
    <g class="st2">

		<linearGradient id="SVGID_1_" gradientUnits="userSpaceOnUse" x1="12.9732" y1="16.865" x2="183.2326" y2="-4.0743"
                        gradientTransform="matrix(1 0 0 -1 0 20.8695)">
		<stop offset="0" style="stop-color:#EC1FB3"/>
            <stop offset="1" style="stop-color:#FBC60B"/>
	</linearGradient>
        <rect class="st3" width="139" height="21.9"/>
</g>
</svg>
