<svg width="24" height="12" viewBox="0 0 24 12" fill="none" xmlns="http://www.w3.org/2000/svg">
    <path d="M0.421165 0.666469C1.50535 0.666469 3.8201 0.666469 4.60236 0.666469C4.76248 0.666469 4.90886 0.753204 4.97748 0.885374C5.93815 2.77292 7.10925 4.47873 8.51824 5.98216C8.63718 6.15976 8.93453 6.13911 9.02144 5.94499C9.46061 4.9785 10.2749 2.62423 8.70122 0.95146C8.55941 0.802769 8.61888 0.567336 8.81559 0.492991C10.4076 -0.105902 11.9675 -0.192636 13.4863 0.418648C13.8065 0.546687 14.0124 0.831673 14.0124 1.14971L14.3692 5.99868C14.3692 6.21346 14.5888 6.38692 14.8221 6.34149C16.5696 6.00694 17.5989 3.64028 18.619 1.17036C18.7425 0.864723 19.0627 0.662334 19.4241 0.662334H23.276C23.5916 0.662334 23.8432 0.914286 23.7883 1.19515C23.4269 2.94639 21.4735 5.21805 20.4534 6.31258C20.1012 6.68843 20.0966 7.2419 20.4488 7.62188L23.8935 11.3268C24.1406 11.5911 23.9301 12 23.5459 12H19.1862C18.8294 12 18.4863 11.8637 18.2439 11.6283L15.1972 9.33595C15.0371 9.179 14.7397 9.12531 14.5888 9.28639C14.2091 9.69942 14.2411 10.2116 14.0627 11.3722C14.0078 11.7357 13.6464 11.9959 13.2392 11.9959H10.2566C9.83115 11.9959 9.41486 11.9174 9.03059 11.7522C7.31969 11.0211 2.649 8.42729 0.0185984 1.1621C-0.0637447 0.922539 0.137539 0.666469 0.421165 0.666469Z"
          fill="#8C8C8C"/>
</svg>
