<svg width="19" height="13" viewBox="0 0 19 13" fill="none" xmlns="http://www.w3.org/2000/svg">
    <path d="M18.6909 1.65869C18.597 0.910949 17.9562 0.315036 17.1482 0.261898C12.0507 -0.0872993 6.94925 -0.0872993 1.85184 0.261898C1.04377 0.318832 0.403018 0.910949 0.30915 1.65869C-0.10305 4.88496 -0.10305 8.11504 0.30915 11.3413C0.403018 12.0891 1.04377 12.685 1.85184 12.7381C6.94925 13.0873 12.0507 13.0873 17.1482 12.7381C17.9562 12.6812 18.597 12.0891 18.6909 11.3413C19.1031 8.11504 19.1031 4.88496 18.6909 1.65869ZM12.5119 6.44496L7.91242 8.89314C7.74509 8.98423 7.53287 8.87037 7.53287 8.68818V3.79183C7.53287 3.60964 7.74101 3.49956 7.91242 3.58686L12.5119 6.03504C12.6793 6.12613 12.6793 6.35387 12.5119 6.44496Z"
          fill="#8C8C8C"/>
</svg>
